<?xml version="1.0" encoding="UTF-8" standalone="no"?>
<!-- Created with Inkscape (http://www.inkscape.org/) -->

<svg
   width="210mm"
   height="297mm"
   viewBox="0 0 210 297"
   version="1.1"
   id="svg1"
   inkscape:version="1.3.2 (091e20e, 2023-11-25, custom)"
   sodipodi:docname="ass1.svg"
   xmlns:inkscape="http://www.inkscape.org/namespaces/inkscape"
   xmlns:sodipodi="http://sodipodi.sourceforge.net/DTD/sodipodi-0.dtd"
   xmlns="http://www.w3.org/2000/svg"
   xmlns:svg="http://www.w3.org/2000/svg">
  <sodipodi:namedview
     id="namedview1"
     pagecolor="#ffffff"
     bordercolor="#000000"
     borderopacity="0.25"
     inkscape:showpageshadow="2"
     inkscape:pageopacity="0.0"
     inkscape:pagecheckerboard="0"
     inkscape:deskcolor="#d1d1d1"
     inkscape:document-units="mm"
     inkscape:zoom="0.96029264"
     inkscape:cx="433.20128"
     inkscape:cy="629.49561"
     inkscape:window-width="1920"
     inkscape:window-height="991"
     inkscape:window-x="-9"
     inkscape:window-y="-9"
     inkscape:window-maximized="1"
     inkscape:current-layer="layer1" />
  <defs
     id="defs1" />
  <g
     inkscape:label="Layer 1"
     inkscape:groupmode="layer"
     id="layer1">
    <path
       id="path1"
       style="fill:#1a0366;fill-opacity:0.900709;stroke:#aa0000;stroke-width:0.420041"
       inkscape:transform-center-x="-1.2292303"
       inkscape:transform-center-y="0.59920784"
       d="M 134.93909 23.091263 A 73.557678 72.663315 90 0 0 92.874467 90.145905 A 73.557678 72.663315 90 0 0 165.70339 163.36673 A 73.557678 72.663315 90 0 0 238.19998 89.809221 L 201.66062 89.809076 A 37.015042 37.566161 45.432428 0 1 164.18681 126.90992 A 37.015042 37.566161 45.432428 0 1 127.08519 90.066736 A 37.015042 37.566161 45.432428 0 1 164.40365 52.340342 A 37.015042 37.566161 45.432428 0 1 201.67637 89.010897 L 164.38069 89.624231 L 201.67532 89.352302 A 37.015042 37.566161 45.432428 0 1 201.67146 89.474003 L 238.19724 89.135499 A 73.557678 72.663315 90 0 0 213.68847 34.864822 A 17.433186 16.739491 61.093252 0 1 206.13403 42.114835 A 17.433186 16.739491 61.093252 0 1 187.36006 38.690199 A 14.41212 14.708987 73.044932 0 1 179.32682 48.213576 A 14.41212 14.708987 73.044932 0 1 159.85908 41.392728 A 14.41212 14.708987 73.044932 0 1 158.70157 34.419899 A 15.920079 15.425711 59.943242 0 1 158.25908 34.666391 A 15.920079 15.425711 59.943242 0 1 137.49783 26.799641 A 15.920079 15.425711 59.943242 0 1 136.17513 22.615563 A 73.557678 72.663315 90 0 0 134.93909 23.091263 z M 158.93934 16.7371 L 151.47584 20.267547 L 159.16406 16.719036 A 73.557678 72.663315 90 0 0 158.93934 16.7371 z M 180.61806 18.190024 L 176.62306 20.065905 L 180.66592 18.199914 A 73.557678 72.663315 90 0 0 180.61806 18.190024 z M 175.48437 34.08263 L 173.18056 35.171081 L 175.58009 34.063574 A 13.231117 18.477855 65.562269 0 1 175.48437 34.08263 z M 200.38211 25.553662 L 198.70604 26.346673 L 200.40128 25.564231 A 73.557678 72.663315 90 0 0 200.38211 25.553662 z "
       transform="matrix(0.90859785,0.41767205,-0.42556021,0.90493011,0,0)" />
    <path
       id="path1-4"
       style="fill:#d35f5f;fill-opacity:0.900709;stroke:#aa0000;stroke-width:0.420033"
       inkscape:transform-center-x="-1.2292303"
       inkscape:transform-center-y="0.59920784"
       d="M 112.65359 76.95706 A 72.561087 73.658523 42.646511 0 0 45.897974 120.06761 A 72.561087 73.658523 42.646511 0 0 39.920044 139.73307 C 35.836936 136.09299 31.972196 134.33795 29.341361 135.37572 L 25.950354 136.71362 C 20.850509 138.72531 22.369371 150.38831 29.356348 162.86396 C 34.165237 171.45051 40.273947 178.11727 45.277856 180.7838 A 72.561087 73.658523 42.646511 0 0 80.910307 216.74594 A 72.561087 73.658523 42.646511 0 0 178.0837 180.46134 L 144.88418 165.19974 A 36.853703 37.729191 70.209104 0 1 95.046912 183.12164 A 36.853703 37.729191 70.209104 0 1 75.791239 162.71927 C 75.455131 160.69057 74.868969 158.45831 74.026489 156.08298 A 36.853703 37.729191 70.209104 0 1 77.015454 134.28483 A 36.853703 37.729191 70.209104 0 1 126.97778 115.73195 A 36.853703 37.729191 70.209104 0 1 145.23816 164.48402 L 111.09038 149.46168 L 145.09192 164.79253 A 36.853703 37.729191 70.209104 0 1 145.03663 164.90105 L 178.36792 179.85052 A 72.561087 73.658523 42.646511 0 0 179.19475 120.50272 A 16.798207 17.371594 7.335498e-07 0 1 169.24548 123.9082 A 16.798207 17.371594 7.335498e-07 0 1 153.64489 112.96778 A 14.751909 14.369642 3.1166799e-06 0 1 142.29312 118.23051 A 14.751909 14.369642 3.1166799e-06 0 1 127.50746 103.92699 A 14.751909 14.369642 3.1166799e-06 0 1 129.42311 97.133606 A 15.862934 15.480695 89.999999 0 1 128.91616 97.171847 A 15.862934 15.480695 89.999999 0 1 113.40031 81.381596 A 15.862934 15.480695 89.999999 0 1 113.97909 77.042843 A 72.561087 73.658523 42.646511 0 0 112.65359 76.95706 z M 137.16424 81.231217 L 128.88051 81.308732 L 137.37611 81.308732 A 72.561087 73.658523 42.646511 0 0 137.16424 81.231217 z M 156.24318 91.60061 L 151.81502 91.629549 L 156.28245 91.629549 A 72.561087 73.658523 42.646511 0 0 156.24318 91.60061 z M 144.81545 103.83811 L 142.25902 103.86084 L 144.91053 103.86084 A 18.538608 13.187258 0 0 1 144.81545 103.83811 z M 171.06708 106.51908 L 169.20673 106.53665 L 171.08 106.53665 A 72.561087 73.658523 42.646511 0 0 171.06708 106.51908 z " />
  </g>
</svg>
